<svg width="18" height="20" fill="none" xmlns="http://www.w3.org/2000/svg"><path d="M10.132 3.494l-5.8 10.046s-1.364 2.024.783 3.263c1.936 1.118 3.153-.99 3.153-.99l6.1-10.566s1.6-2.771-1.155-4.362c-2.756-1.59-4.356 1.18-4.356 1.18l-6.1 10.566S.457 16.615 4 18.661c3.543 2.045 5.843-1.94 5.843-1.94l6.1-10.565c.25-.433-.538-.887-.788-.454l-6.1 10.565s-1.558 3.362-4.6 1.606c-2.756-1.591-.91-4.788-.91-4.788l6.1-10.565s1.145-1.984 3.113-.848c1.968 1.137.823 3.12.823 3.12l-6.1 10.566s-.717 1.243-1.866.58c-1.149-.664-.496-1.943-.496-1.943l5.8-10.046c.25-.433-.537-.888-.787-.455z" fill="#6A3F24"/></svg>