<svg width="40" height="40" fill="none" xmlns="http://www.w3.org/2000/svg"><g clip-path="url(#clip0)"><path d="M20.007 40.013c11.049 0 20.006-8.957 20.006-20.006C40.013 8.957 31.056 0 20.007 0 8.957 0 0 8.957 0 20.007c0 11.049 8.957 20.006 20.007 20.006z" fill="#6A3F24"/><path d="M21.623 33.455V21.45h4.001l.597-4.677h-4.677v-2.981c0-1.365.344-2.292 2.292-2.292h2.557V7.314c-.438-.08-1.882-.16-3.67-.16-3.578 0-6.042 2.213-6.042 6.215v3.484H12.6v4.677h4.08v12.004l4.942-.08z" fill="#EDE4DE"/></g><defs><clipPath id="clip0"><path fill="#fff" d="M0 0h40v40H0z"/></clipPath></defs></svg>