<svg width="40" height="40" fill="none" xmlns="http://www.w3.org/2000/svg"><path d="M20 40c11.046 0 20-8.954 20-20S31.046 0 20 0 0 8.954 0 20s8.954 20 20 20z" fill="#6A3F24"/><g clip-path="url(#clip0)"><path d="M31.416 13.842c-.246-1.172-1.148-2.009-2.213-2.344-1.884-.502-9.75-.502-9.75-.502s-7.785 0-9.751.502c-1.066.335-1.885 1.172-2.213 2.344-.491 1.925-.491 6.11-.491 6.11s0 4.184.491 6.192c.328 1.088 1.147 2.009 2.213 2.26 1.966.502 9.75.502 9.75.502s7.785 0 9.751-.502a3.36 3.36 0 002.213-2.26c.491-2.008.491-6.193.491-6.193s.082-4.184-.491-6.11z" fill="#EDE4DE"/><path d="M16.912 23.8v-7.615l6.555 3.766-6.555 3.85z" fill="#6A3F24"/></g><defs><clipPath id="clip0"><path fill="#fff" transform="translate(6.998 10.996)" d="M0 0h24.992v17.994H0z"/></clipPath></defs></svg>