<svg width="162" height="154" fill="none" xmlns="http://www.w3.org/2000/svg"><path d="M45.463 2v112h-20.8V19.44H.983V2h44.48zm68.938 113.6c-8.96 0-16.96-2.24-24-6.72-7.04-4.587-12.587-11.2-16.64-19.84-4.054-8.747-6.08-19.093-6.08-31.04s2.026-22.24 6.08-30.88c4.053-8.747 9.6-15.36 16.64-19.84C97.44 2.693 105.44.4 114.4.4s16.96 2.293 24 6.88c7.146 4.48 12.746 11.093 16.8 19.84 4.053 8.64 6.08 18.933 6.08 30.88s-2.027 22.293-6.08 31.04c-4.054 8.64-9.654 15.253-16.8 19.84-7.04 4.48-15.04 6.72-24 6.72zm0-18.08c8 0 14.293-3.307 18.88-9.92 4.693-6.613 7.04-16.48 7.04-29.6 0-13.12-2.347-22.987-7.04-29.6-4.587-6.613-10.88-9.92-18.88-9.92-7.894 0-14.187 3.307-18.88 9.92-4.587 6.613-6.88 16.48-6.88 29.6 0 13.12 2.293 22.987 6.88 29.6 4.693 6.613 10.986 9.92 18.88 9.92zm-52.959 41.32h-5.568V153h-3.096v-14.16h-5.544v-2.64h14.208v2.64zm10.233 14.4c-1.712 0-3.256-.368-4.632-1.104-1.376-.752-2.456-1.784-3.24-3.096-.784-1.328-1.176-2.808-1.176-4.44 0-1.632.392-3.104 1.176-4.416a8.155 8.155 0 013.24-3.096c1.376-.752 2.92-1.128 4.632-1.128 1.712 0 3.256.376 4.632 1.128a8.206 8.206 0 013.24 3.072c.784 1.312 1.176 2.792 1.176 4.44 0 1.648-.392 3.128-1.176 4.44-.784 1.312-1.864 2.344-3.24 3.096-1.376.736-2.92 1.104-4.632 1.104zm0-2.736c1.12 0 2.128-.248 3.024-.744a5.578 5.578 0 002.112-2.112c.512-.912.768-1.928.768-3.048s-.256-2.128-.768-3.024a5.363 5.363 0 00-2.112-2.112c-.896-.512-1.904-.768-3.024-.768s-2.128.256-3.024.768c-.896.496-1.6 1.2-2.112 2.112-.512.896-.768 1.904-.768 3.024s.256 2.136.768 3.048a5.578 5.578 0 002.112 2.112c.896.496 1.904.744 3.024.744zM99.1 136.2V153h-3.12v-7.2h-8.688v7.2h-3.12v-16.8h3.12v6.936h8.688V136.2h3.12zm19.641 0V153h-3.12v-7.2h-8.688v7.2h-3.12v-16.8h3.12v6.936h8.688V136.2h3.12z" fill="url(#paint0_linear)"/><defs><linearGradient id="paint0_linear" x1="-24.321" y1="164" x2="184.146" y2="164" gradientUnits="userSpaceOnUse"><stop stop-color="#0180D6"/><stop offset="1" stop-color="#23D6E6"/></linearGradient></defs></svg>