<svg width="211" height="157" fill="none" xmlns="http://www.w3.org/2000/svg"><path d="M73.729 2v112h-20.8V19.44h-23.68V2h44.48zm103.337 94.4V114h-82.56v-13.92l44.48-42.24c5.014-4.8 8.374-8.96 10.08-12.48 1.814-3.627 2.72-7.2 2.72-10.72 0-5.227-1.76-9.227-5.28-12-3.52-2.773-8.693-4.16-15.52-4.16-11.413 0-20.16 3.893-26.24 11.68l-14.56-11.2c4.374-5.867 10.24-10.4 17.6-13.6C115.253 2.053 123.573.4 132.746.4c12.16 0 21.867 2.88 29.12 8.64 7.254 5.76 10.88 13.6 10.88 23.52 0 6.08-1.28 11.787-3.84 17.12-2.56 5.333-7.466 11.413-14.72 18.24l-29.92 28.48h52.8zM.185 136.2h3.072v11.928L12.28 136.2h2.904V153h-3.072v-11.904L3.089 153H.185v-16.8zm34.638 0V153h-3.12v-7.2h-8.688v7.2h-3.12v-16.8h3.12v6.936h8.688V136.2h3.12zm16.113 2.64h-8.328l.024 14.16H39.56v-16.8h11.4l-.024 2.64zm9.55-2.64c1.457 0 2.72.24 3.793.72 1.088.48 1.92 1.168 2.496 2.064.576.896.864 1.96.864 3.192 0 1.216-.288 2.28-.864 3.192-.576.896-1.408 1.584-2.496 2.064-1.072.48-2.336.72-3.792.72h-3.792V153h-3.12v-16.8h6.912zm-.143 9.312c1.36 0 2.392-.288 3.096-.864.704-.576 1.056-1.4 1.056-2.472s-.352-1.896-1.056-2.472c-.704-.576-1.736-.864-3.096-.864h-3.648v6.672h3.648zm22.847 4.872V153h-12.6v-16.8h12.264v2.616H73.71v4.368h8.112v2.568H73.71v4.632h9.48zm20.134-.024v6.216h-2.88V153H87.556v3.576h-2.904l.024-6.216h.72c1.056-.048 1.792-.824 2.208-2.328.432-1.52.696-3.688.792-6.504l.192-5.328H100.9v14.16h2.424zm-12.192-8.544c-.08 2.176-.256 3.992-.528 5.448-.272 1.44-.704 2.472-1.296 3.096h8.52v-11.52h-6.576l-.12 2.976zm15.154-5.616h3.072v11.928l9.024-11.928h2.904V153h-3.072v-11.904L109.19 153h-2.904v-16.8zm32.311 14.184V153h-12.6v-16.8h12.264v2.616h-9.144v4.368h8.112v2.568h-8.112v4.632h9.48zm18.406-14.184V153h-3.12v-7.2h-8.688v7.2h-3.12v-16.8h3.12v6.936h8.688V136.2h3.12zm16.904 2.64h-5.568V153h-3.096v-14.16h-5.544v-2.64h14.208v2.64zm10.233 14.4c-1.712 0-3.256-.368-4.632-1.104-1.376-.752-2.456-1.784-3.24-3.096-.784-1.328-1.176-2.808-1.176-4.44 0-1.632.392-3.104 1.176-4.416a8.155 8.155 0 013.24-3.096c1.376-.752 2.92-1.128 4.632-1.128 1.712 0 3.256.376 4.632 1.128a8.206 8.206 0 013.24 3.072c.784 1.312 1.176 2.792 1.176 4.44 0 1.648-.392 3.128-1.176 4.44-.784 1.312-1.864 2.344-3.24 3.096-1.376.736-2.92 1.104-4.632 1.104zm0-2.736c1.12 0 2.128-.248 3.024-.744a5.578 5.578 0 002.112-2.112c.512-.912.768-1.928.768-3.048s-.256-2.128-.768-3.024a5.363 5.363 0 00-2.112-2.112c-.896-.512-1.904-.768-3.024-.768s-2.128.256-3.024.768c-.896.496-1.6 1.2-2.112 2.112-.512.896-.768 1.904-.768 3.024s.256 2.136.768 3.048a5.578 5.578 0 002.112 2.112c.896.496 1.904.744 3.024.744zm23.561-6.24c1.072.288 1.888.784 2.448 1.488.56.688.84 1.552.84 2.592 0 1.472-.544 2.616-1.632 3.432-1.088.816-2.664 1.224-4.728 1.224h-7.968v-16.8h7.512c1.888 0 3.36.376 4.416 1.128 1.056.752 1.584 1.816 1.584 3.192 0 .88-.216 1.64-.648 2.28-.416.64-1.024 1.128-1.824 1.464zm-7.968-.888h4.176c1.008 0 1.776-.2 2.304-.6.528-.4.792-.992.792-1.776s-.264-1.376-.792-1.776c-.528-.416-1.296-.624-2.304-.624h-4.176v4.776zm4.8 7.224c2.208 0 3.312-.832 3.312-2.496 0-1.632-1.104-2.448-3.312-2.448h-4.8v4.944h4.8z" fill="url(#paint0_linear)"/><defs><linearGradient id="paint0_linear" x1="-1" y1="164" x2="203" y2="164" gradientUnits="userSpaceOnUse"><stop stop-color="#890C58"/><stop offset="1" stop-color="#FC4D8D"/></linearGradient></defs></svg>