<svg width="87" height="152" fill="none" xmlns="http://www.w3.org/2000/svg"><path d="M40.361 43.36c15.787 0 27.467 3.093 35.04 9.28 7.574 6.08 11.36 14.4 11.36 24.96 0 6.72-1.653 12.8-4.96 18.24-3.306 5.44-8.266 9.76-14.88 12.96-6.613 3.2-14.773 4.8-24.48 4.8-8 0-15.733-1.12-23.2-3.36-7.466-2.347-13.76-5.547-18.88-9.6l8.8-16.16c4.16 3.413 9.12 6.133 14.88 8.16a57.765 57.765 0 0018.08 2.88c7.36 0 13.12-1.493 17.28-4.48 4.267-3.093 6.4-7.307 6.4-12.64 0-5.76-2.293-10.08-6.88-12.96-4.48-2.987-12.213-4.48-23.2-4.48H8.681L14.441 0h65.76v17.44h-48.16l-2.4 25.92h10.72zm-3.676 90.84V151h-3.073v-14.16h-6.624l-.143 4.2c-.08 2.352-.272 4.264-.576 5.736-.304 1.456-.792 2.568-1.464 3.336-.672.752-1.6 1.128-2.785 1.128-.415 0-.983-.08-1.703-.24l.215-2.712c.209.064.448.096.72.096.977 0 1.665-.576 2.065-1.728.416-1.168.671-3 .767-5.496l.24-6.96h12.36zm17.326 14.184V151h-12.6v-16.8h12.264v2.616H44.53v4.368h8.112v2.568H44.53v4.632h9.48zm15.67-11.544h-5.568V151h-3.096v-14.16h-5.544v-2.64H69.68v2.64z" fill="url(#paint0_linear)"/><defs><linearGradient id="paint0_linear" x1="-61" y1="162" x2="143" y2="162" gradientUnits="userSpaceOnUse"><stop stop-color="#DC5503"/><stop offset="1" stop-color="#FCA916"/></linearGradient></defs></svg>