<svg width="143" height="152" fill="none" xmlns="http://www.w3.org/2000/svg"><path d="M113.848 0v13.92L70.328 112h-22.24l42.08-94.4h-44v19.04h-19.36V0h87.04zM7.784 134.2c1.456 0 2.72.24 3.792.72 1.088.48 1.92 1.168 2.495 2.064.577.896.864 1.96.864 3.192 0 1.216-.287 2.28-.864 3.192-.575.896-1.407 1.584-2.495 2.064-1.072.48-2.336.72-3.792.72H3.992V151H.872v-16.8h6.912zm-.144 9.312c1.36 0 2.391-.288 3.096-.864.704-.576 1.055-1.4 1.055-2.472s-.351-1.896-1.056-2.472c-.704-.576-1.735-.864-3.095-.864H3.992v6.672H7.64zm22.847 4.872V151h-12.6v-16.8h12.264v2.616h-9.144v4.368h8.112v2.568h-8.112v4.632h9.48zm14.878-11.544h-8.328l.024 14.16H33.99v-16.8h11.4l-.024 2.64zm2.663-2.64H51.1v11.928l9.024-11.928h2.904V151h-3.072v-11.904L50.932 151h-2.904v-16.8zm27.487 17.04c-1.712 0-3.256-.368-4.632-1.104-1.376-.752-2.456-1.784-3.24-3.096-.784-1.328-1.176-2.808-1.176-4.44 0-1.632.392-3.104 1.176-4.416a8.155 8.155 0 013.24-3.096c1.376-.752 2.92-1.128 4.632-1.128 1.712 0 3.256.376 4.632 1.128a8.206 8.206 0 013.24 3.072c.784 1.312 1.176 2.792 1.176 4.44 0 1.648-.392 3.128-1.176 4.44-.784 1.312-1.864 2.344-3.24 3.096-1.376.736-2.92 1.104-4.632 1.104zm0-2.736c1.12 0 2.128-.248 3.024-.744a5.578 5.578 0 002.112-2.112c.512-.912.768-1.928.768-3.048s-.256-2.128-.768-3.024a5.363 5.363 0 00-2.112-2.112c-.896-.512-1.904-.768-3.024-.768s-2.128.256-3.024.768c-.896.496-1.6 1.2-2.112 2.112-.512.896-.768 1.904-.768 3.024s.256 2.136.768 3.048a5.578 5.578 0 002.112 2.112c.896.496 1.904.744 3.024.744zM102.94 134.2V151h-3.12v-7.2h-8.688v7.2h-3.12v-16.8h3.12v6.936h8.688V134.2h3.12zm12.489 17.04c-1.712 0-3.256-.368-4.632-1.104-1.376-.752-2.456-1.784-3.24-3.096-.784-1.328-1.176-2.808-1.176-4.44 0-1.632.392-3.104 1.176-4.416a8.155 8.155 0 013.24-3.096c1.376-.752 2.92-1.128 4.632-1.128 1.712 0 3.256.376 4.632 1.128a8.206 8.206 0 013.24 3.072c.784 1.312 1.176 2.792 1.176 4.44 0 1.648-.392 3.128-1.176 4.44-.784 1.312-1.864 2.344-3.24 3.096-1.376.736-2.92 1.104-4.632 1.104zm0-2.736c1.12 0 2.128-.248 3.024-.744a5.578 5.578 0 002.112-2.112c.512-.912.768-1.928.768-3.048s-.256-2.128-.768-3.024a5.363 5.363 0 00-2.112-2.112c-.896-.512-1.904-.768-3.024-.768s-2.128.256-3.024.768c-.896.496-1.6 1.2-2.112 2.112-.512.896-.768 1.904-.768 3.024s.256 2.136.768 3.048a5.578 5.578 0 002.112 2.112c.896.496 1.904.744 3.024.744zm23.561-6.24c1.072.288 1.888.784 2.448 1.488.56.688.84 1.552.84 2.592 0 1.472-.544 2.616-1.632 3.432-1.088.816-2.664 1.224-4.728 1.224h-7.968v-16.8h7.512c1.888 0 3.36.376 4.416 1.128 1.056.752 1.584 1.816 1.584 3.192 0 .88-.216 1.64-.648 2.28-.416.64-1.024 1.128-1.824 1.464zm-7.968-.888h4.176c1.008 0 1.776-.2 2.304-.6.528-.4.792-.992.792-1.776s-.264-1.376-.792-1.776c-.528-.416-1.296-.624-2.304-.624h-4.176v4.776zm4.8 7.224c2.208 0 3.312-.832 3.312-2.496 0-1.632-1.104-2.448-3.312-2.448h-4.8v4.944h4.8z" fill="url(#paint0_linear)"/><defs><linearGradient id="paint0_linear" x1="-35" y1="162" x2="169" y2="162" gradientUnits="userSpaceOnUse"><stop stop-color="#014C29"/><stop offset="1" stop-color="#01FD01"/></linearGradient></defs></svg>